<svg viewBox="-300 -200 1680 2320" fill="none" xmlns="http://www.w3.org/2000/svg" preserveAspectRatio="xMidYMid meet">
<g transform="translate(540, 960) scale(1.5, 1.5) translate(-540, -920)">
<path d="M225.474 974.5C217.64 974.5 210.057 972.667 202.724 969C195.557 965.333 189.974 960.417 185.974 954.25L187.474 947V1021.75H164.474V867H184.474L187.724 893.5L185.224 886.25C190.224 879.917 196.557 874.667 204.224 870.5C211.89 866.333 220.474 864.25 229.974 864.25C239.64 864.25 248.307 866.583 255.974 871.25C263.807 875.917 269.974 882.417 274.474 890.75C278.974 899.083 281.224 908.833 281.224 920C281.224 931.167 278.807 940.833 273.974 949C269.14 957.167 262.474 963.5 253.974 968C245.64 972.333 236.14 974.5 225.474 974.5ZM220.974 956C227.64 956 233.724 954.5 239.224 951.5C244.89 948.333 249.39 944.083 252.724 938.75C256.057 933.25 257.724 927.083 257.724 920.25C257.724 913.25 256.14 907.083 252.974 901.75C249.807 896.25 245.557 891.917 240.224 888.75C235.057 885.583 229.224 884 222.724 884C216.724 884 211.307 885.167 206.474 887.5C201.64 889.833 197.64 893.083 194.474 897.25C191.307 901.25 189.057 905.917 187.724 911.25V928.5C188.557 933.833 190.557 938.583 193.724 942.75C196.89 946.917 200.807 950.167 205.474 952.5C210.307 954.833 215.474 956 220.974 956ZM353.667 919.25C353.667 908.917 356.084 899.583 360.917 891.25C365.917 882.917 372.75 876.333 381.417 871.5C390.084 866.667 399.917 864.25 410.917 864.25C422.25 864.25 432.167 866.667 440.667 871.5C449.167 876.333 455.75 882.917 460.417 891.25C465.084 899.583 467.417 908.917 467.417 919.25C467.417 929.583 465.084 939 460.417 947.5C455.75 955.833 449.084 962.417 440.417 967.25C431.917 972.083 422 974.5 410.667 974.5C399.667 974.5 389.834 972.25 381.167 967.75C372.667 963.083 365.917 956.667 360.917 948.5C356.084 940.167 353.667 930.417 353.667 919.25ZM376.917 919.5C376.917 926.167 378.417 932.25 381.417 937.75C384.417 943.083 388.417 947.333 393.417 950.5C398.584 953.667 404.25 955.25 410.417 955.25C416.917 955.25 422.667 953.667 427.667 950.5C432.834 947.333 436.834 943.083 439.667 937.75C442.5 932.25 443.917 926.167 443.917 919.5C443.917 912.833 442.5 906.833 439.667 901.5C436.834 896 432.834 891.667 427.667 888.5C422.667 885.167 416.917 883.5 410.417 883.5C404.084 883.5 398.334 885.167 393.167 888.5C388.167 891.833 384.167 896.25 381.167 901.75C378.334 907.083 376.917 913 376.917 919.5ZM698.749 868.5L700.749 893.75L699.749 889.75C703.082 882.083 708.499 876 715.999 871.5C723.499 866.833 732.166 864.5 741.999 864.5C751.832 864.5 759.832 867.417 765.999 873.25C772.332 878.917 775.582 886.333 775.749 895.5V972H752.249V903.75C752.082 898.083 750.416 893.5 747.249 890C744.249 886.333 739.499 884.5 732.999 884.5C726.999 884.5 721.582 886.167 716.749 889.5C711.916 892.833 708.082 897.417 705.249 903.25C702.582 909.083 701.249 915.833 701.249 923.5V972H677.999V868.5H698.749ZM876.183 823H899.433V869H927.933V887.25H899.433V972H876.183V887.25H857.183V869H876.183V823Z" fill="white"/>
<path d="M514.176 698.487C501.416 744.559 510.523 815.335 560.978 887C600.143 817.574 620.57 747.03 608.583 698.487C596.596 649.944 526.936 652.415 514.176 698.487Z" stroke="white" stroke-width="22"/>
<circle cx="563" cy="949" r="23" fill="white"/>
</g>
</svg>
