<svg width="1024" height="1024" viewBox="0 0 1024 1024" fill="none" xmlns="http://www.w3.org/2000/svg">
<path d="M197.474 558.5C189.64 558.5 182.057 556.667 174.724 553C167.557 549.333 161.974 544.417 157.974 538.25L159.474 531V605.75H136.474V451H156.474L159.724 477.5L157.224 470.25C162.224 463.917 168.557 458.667 176.224 454.5C183.89 450.333 192.474 448.25 201.974 448.25C211.64 448.25 220.307 450.583 227.974 455.25C235.807 459.917 241.974 466.417 246.474 474.75C250.974 483.083 253.224 492.833 253.224 504C253.224 515.167 250.807 524.833 245.974 533C241.14 541.167 234.474 547.5 225.974 552C217.64 556.333 208.14 558.5 197.474 558.5ZM192.974 540C199.64 540 205.724 538.5 211.224 535.5C216.89 532.333 221.39 528.083 224.724 522.75C228.057 517.25 229.724 511.083 229.724 504.25C229.724 497.25 228.14 491.083 224.974 485.75C221.807 480.25 217.557 475.917 212.224 472.75C207.057 469.583 201.224 468 194.724 468C188.724 468 183.307 469.167 178.474 471.5C173.64 473.833 169.64 477.083 166.474 481.25C163.307 485.25 161.057 489.917 159.724 495.25V512.5C160.557 517.833 162.557 522.583 165.724 526.75C168.89 530.917 172.807 534.167 177.474 536.5C182.307 538.833 187.474 540 192.974 540ZM325.667 503.25C325.667 492.917 328.084 483.583 332.917 475.25C337.917 466.917 344.75 460.333 353.417 455.5C362.084 450.667 371.917 448.25 382.917 448.25C394.25 448.25 404.167 450.667 412.667 455.5C421.167 460.333 427.75 466.917 432.417 475.25C437.084 483.583 439.417 492.917 439.417 503.25C439.417 513.583 437.084 523 432.417 531.5C427.75 539.833 421.084 546.417 412.417 551.25C403.917 556.083 394 558.5 382.667 558.5C371.667 558.5 361.834 556.25 353.167 551.75C344.667 547.083 337.917 540.667 332.917 532.5C328.084 524.167 325.667 514.417 325.667 503.25ZM348.917 503.5C348.917 510.167 350.417 516.25 353.417 521.75C356.417 527.083 360.417 531.333 365.417 534.5C370.584 537.667 376.25 539.25 382.417 539.25C388.917 539.25 394.667 537.667 399.667 534.5C404.834 531.333 408.834 527.083 411.667 521.75C414.5 516.25 415.917 510.167 415.917 503.5C415.917 496.833 414.5 490.833 411.667 485.5C408.834 480 404.834 475.667 399.667 472.5C394.667 469.167 388.917 467.5 382.417 467.5C376.084 467.5 370.334 469.167 365.167 472.5C360.167 475.833 356.167 480.25 353.167 485.75C350.334 491.083 348.917 497 348.917 503.5ZM670.749 452.5L672.749 477.75L671.749 473.75C675.082 466.083 680.499 460 687.999 455.5C695.499 450.833 704.166 448.5 713.999 448.5C723.832 448.5 731.832 451.417 737.999 457.25C744.332 462.917 747.582 470.333 747.749 479.5V556H724.249V487.75C724.082 482.083 722.416 477.5 719.249 474C716.249 470.333 711.499 468.5 704.999 468.5C698.999 468.5 693.582 470.167 688.749 473.5C683.916 476.833 680.082 481.417 677.249 487.25C674.582 493.083 673.249 499.833 673.249 507.5V556H649.999V452.5H670.749ZM848.183 407H871.433V453H899.933V471.25H871.433V556H848.183V471.25H829.183V453H848.183V407Z" fill="white"/>
<path d="M486.176 282.487C473.416 328.559 482.523 399.335 532.978 471C572.143 401.574 592.57 331.03 580.583 282.487C568.596 233.944 498.936 236.415 486.176 282.487Z" stroke="white" stroke-width="22"/>
<circle cx="535" cy="533" r="23" fill="white"/>
</svg>
